# xmcd
#
# Track frame offsets:
#	150
#	11844
#	31585
#	43309
#
# Disc length: 746 seconds
#
# Revision: 1
# Processed by: cddbd v1.5.2PL0 Copyright (c) Steve Scherf et al.
# Submitted via: audiograbber 1.83.01
#
DISCID=2902e804
DTITLE=The Nashville's - The Nashville's
DYEAR=1900
DGENRE=Country
TTITLE0=Folsom Prison Blues
TTITLE1=Okie From Muskogee
TTITLE2=Jambalaya
TTITLE3=Blue Moon of Kentucky
EXTD=
EXTT0=
EXTT1=
EXTT2=
EXTT3=
PLAYORDER=
